# xmcd CD database file
#
# Track frame offsets:
#	150
#	24230
#	44395
#	68462
#
# Disc length: 1180 seconds
#
# Revision: 4
# Processed by: cddbd v1.5.1PL0 Copyright (c) Steve Scherf et al.
# Submitted via: CDex 1.60beta1
#
DISCID=25049a04
DTITLE=松澤 由実 - Dearest
DYEAR=9807
DGENRE=Anime
TTITLE0=Dearest
TTITLE1=ROSE BUD
TTITLE2=Dearest (off vocal version)
TTITLE3=ROSE BUD (off vocal version)
EXTD=YEAR: 980703
EXTT0=
EXTT1=
EXTT2=
EXTT3=
PLAYORDER=
